# xmcd
#
# Track frame offsets:
#	150
#	14555
#	28654
#	45821
#	63720
#	76509
#	93551
#	109106
#	124365
#	132797
#	150685
#	164443
#	182081
#
# Disc length: 2653
#
# Revision: 1
# Processed by: cddbd v1.5.1PL0 Copyright (c) Steve Scherf et al.
# Submitted via: CDex 1.51
# Normalized: r0:TRMNUM
#
DISCID=a30a5b0d
DTITLE=Steve Warner - The Way Things Used To Be
DYEAR=2003
DGENRE=Country
TTITLE0=Do It Right the First Time
TTITLE1=The Way Things Used to Be
TTITLE2=I Don't Think With My Heart
TTITLE3=I'll Meet You in Our Dreams
TTITLE4=Ghost in the Breeze
TTITLE5=I Don't Get the Blues Anymore
TTITLE6=Castro's Children
TTITLE7=Carry on the Name
TTITLE8=Dingman's Ferry
TTITLE9=Jessie Louder
TTITLE10=Road of Regret
TTITLE11=The Best That They Can Do
TTITLE12=Tonight We Danced in My Dreams
EXTD=YEAR: 2003
EXTT0=
EXTT1=
EXTT2=
EXTT3=
EXTT4=
EXTT5=
EXTT6=
EXTT7=
EXTT8=
EXTT9=
EXTT10=
EXTT11=
EXTT12=
PLAYORDER=
